<svg width="109" height="110" viewBox="0 0 109 110" fill="none" xmlns="http://www.w3.org/2000/svg">
<rect x="8.45508" y="17.5" width="85" height="85" stroke="#F97316" stroke-width="15"/>
<path fill-rule="evenodd" clip-rule="evenodd" d="M108.455 0C100.955 7.5 90.8833 9.23444 87.4501 10.1365C78.4551 12.5 69.4547 15.7629 62.4251 22.0465C57.7196 25.2843 53.9143 29.665 51.3666 34.7772C48.8188 39.8893 47.6122 45.5651 47.8601 51.2715C47.7833 55.0175 48.446 58.7419 49.8101 62.2315C46.5556 66.1963 43.596 70.3942 40.9551 74.7915C40.9551 75.9415 42.4051 76.8915 44.0551 75.8415C49.9166 69.7518 55.4304 63.3367 60.5701 56.6265C64.9952 50.0655 69.0547 43.2652 72.7301 36.2565C72.8402 36.0117 72.8825 35.7417 72.8527 35.4749C72.8229 35.2081 72.722 34.9542 72.5606 34.7397C72.3992 34.5251 72.1832 34.3579 71.9351 34.2553C71.6869 34.1527 71.4159 34.1186 71.1501 34.1565C70.7933 34.2073 70.4667 34.3848 70.2301 34.6565C50.8601 60.2265 53.6151 56.6765 51.4651 59.6765C51.4129 58.844 51.4129 58.0091 51.4651 57.1765C50.5837 52.4411 50.8555 47.563 52.2576 42.9548C53.6596 38.3466 56.1507 34.1437 59.5201 30.7015C69.5301 20.6915 93.4551 15 98.4551 10.1365C95.9551 25 88.1951 29.9515 87.8451 32.4515L80.1401 37.4565C79.2401 37.9565 76.9901 38.5565 76.3401 40.4565C75.2351 43.7615 79.2901 44.0665 81.9401 46.7165C75.5851 50.4165 74.7851 49.2165 72.8301 50.6165C72.4937 50.7995 72.1969 51.0473 71.9567 51.3455C71.7166 51.6438 71.5379 51.9867 71.431 52.3544C71.3241 52.7221 71.291 53.1074 71.3338 53.4879C71.3765 53.8684 71.4942 54.2367 71.6801 54.5715C73.2667 56.1015 74.9351 57.5365 76.6851 58.8765C63.2751 70.1365 59.5201 66.2365 57.2701 67.7365C56.9698 67.9411 56.7404 68.2338 56.6135 68.5743C56.4867 68.9149 56.4687 69.2863 56.562 69.6375C56.6552 69.9887 56.8552 70.3023 57.1343 70.535C57.4134 70.7676 57.7578 70.9079 58.1201 70.9365C68.1301 72.5365 81.1401 60.9315 81.5901 59.7765C82.3901 57.6765 79.9401 56.0265 77.6401 53.9265C80.9605 52.6333 84.2012 51.144 87.3451 49.4665C87.7521 49.2659 88.1034 48.9679 88.3678 48.599C88.6322 48.2302 88.8016 47.8018 88.8609 47.3519C88.9203 46.9019 88.8677 46.4443 88.708 46.0195C88.5482 45.5947 88.2862 45.2159 87.9451 44.9165L83.8451 41.2615C89.4951 38.1615 92.3501 36.6615 93.3501 33.9065C93.9501 32.4065 110.055 2.45 108.455 0Z" fill="#020202"/>
</svg>
