<svg xmlns="http://www.w3.org/2000/svg" version="1.1" xmlns:xlink="http://www.w3.org/1999/xlink" width="1000" height="1000"><style>
    #light-icon {
      display: inline;
    }
    #dark-icon {
      display: none;
    }

    @media (prefers-color-scheme: dark) {
      #light-icon {
        display: none;
      }
      #dark-icon {
        display: inline;
      }
    }
  </style><g id="light-icon"><svg xmlns="http://www.w3.org/2000/svg" version="1.1" xmlns:xlink="http://www.w3.org/1999/xlink" width="1000" height="1000"><g><g transform="matrix(9.090909090909092,0,0,9.090909090909092,4.545454545454504,-5.684341886080802e-14)"><svg xmlns="http://www.w3.org/2000/svg" version="1.1" xmlns:xlink="http://www.w3.org/1999/xlink" width="109" height="110"><svg width="109" height="110" viewBox="0 0 109 110" fill="none" xmlns="http://www.w3.org/2000/svg">
<rect x="8.45508" y="17.5" width="85" height="85" stroke="#F97316" stroke-width="15"></rect>
<path fill-rule="evenodd" clip-rule="evenodd" d="M108.455 0C100.955 7.5 90.8833 9.23444 87.4501 10.1365C78.4551 12.5 69.4547 15.7629 62.4251 22.0465C57.7196 25.2843 53.9143 29.665 51.3666 34.7772C48.8188 39.8893 47.6122 45.5651 47.8601 51.2715C47.7833 55.0175 48.446 58.7419 49.8101 62.2315C46.5556 66.1963 43.596 70.3942 40.9551 74.7915C40.9551 75.9415 42.4051 76.8915 44.0551 75.8415C49.9166 69.7518 55.4304 63.3367 60.5701 56.6265C64.9952 50.0655 69.0547 43.2652 72.7301 36.2565C72.8402 36.0117 72.8825 35.7417 72.8527 35.4749C72.8229 35.2081 72.722 34.9542 72.5606 34.7397C72.3992 34.5251 72.1832 34.3579 71.9351 34.2553C71.6869 34.1527 71.4159 34.1186 71.1501 34.1565C70.7933 34.2073 70.4667 34.3848 70.2301 34.6565C50.8601 60.2265 53.6151 56.6765 51.4651 59.6765C51.4129 58.844 51.4129 58.0091 51.4651 57.1765C50.5837 52.4411 50.8555 47.563 52.2576 42.9548C53.6596 38.3466 56.1507 34.1437 59.5201 30.7015C69.5301 20.6915 93.4551 15 98.4551 10.1365C95.9551 25 88.1951 29.9515 87.8451 32.4515L80.1401 37.4565C79.2401 37.9565 76.9901 38.5565 76.3401 40.4565C75.2351 43.7615 79.2901 44.0665 81.9401 46.7165C75.5851 50.4165 74.7851 49.2165 72.8301 50.6165C72.4937 50.7995 72.1969 51.0473 71.9567 51.3455C71.7166 51.6438 71.5379 51.9867 71.431 52.3544C71.3241 52.7221 71.291 53.1074 71.3338 53.4879C71.3765 53.8684 71.4942 54.2367 71.6801 54.5715C73.2667 56.1015 74.9351 57.5365 76.6851 58.8765C63.2751 70.1365 59.5201 66.2365 57.2701 67.7365C56.9698 67.9411 56.7404 68.2338 56.6135 68.5743C56.4867 68.9149 56.4687 69.2863 56.562 69.6375C56.6552 69.9887 56.8552 70.3023 57.1343 70.535C57.4134 70.7676 57.7578 70.9079 58.1201 70.9365C68.1301 72.5365 81.1401 60.9315 81.5901 59.7765C82.3901 57.6765 79.9401 56.0265 77.6401 53.9265C80.9605 52.6333 84.2012 51.144 87.3451 49.4665C87.7521 49.2659 88.1034 48.9679 88.3678 48.599C88.6322 48.2302 88.8016 47.8018 88.8609 47.3519C88.9203 46.9019 88.8677 46.4443 88.708 46.0195C88.5482 45.5947 88.2862 45.2159 87.9451 44.9165L83.8451 41.2615C89.4951 38.1615 92.3501 36.6615 93.3501 33.9065C93.9501 32.4065 110.055 2.45 108.455 0Z" fill="#020202"></path>
</svg></svg></g></g></svg></g><g id="dark-icon"><svg xmlns="http://www.w3.org/2000/svg" version="1.1" xmlns:xlink="http://www.w3.org/1999/xlink" width="1000" height="1000"><g><g transform="matrix(9.090909090909092,0,0,9.090909090909092,9.090909090909065,-5.684341886080802e-14)"><svg xmlns="http://www.w3.org/2000/svg" version="1.1" xmlns:xlink="http://www.w3.org/1999/xlink" width="108" height="110"><svg width="108" height="110" viewBox="0 0 108 110" fill="none" xmlns="http://www.w3.org/2000/svg">
<rect x="7.5" y="17.5" width="85" height="85" stroke="#F97316" stroke-width="15"></rect>
<path fill-rule="evenodd" clip-rule="evenodd" d="M107.5 0C100 7.5 89.9282 9.23444 86.495 10.1365C77.5 12.5 68.4996 15.7629 61.47 22.0465C56.7645 25.2843 52.9592 29.665 50.4115 34.7772C47.8637 39.8893 46.6571 45.5651 46.905 51.2715C46.8282 55.0175 47.4909 58.7419 48.855 62.2315C45.6005 66.1963 42.6409 70.3942 40 74.7915C40 75.9415 41.45 76.8915 43.1 75.8415C48.9615 69.7518 54.4753 63.3367 59.615 56.6265C64.0401 50.0655 68.0997 43.2652 71.775 36.2565C71.8851 36.0117 71.9274 35.7417 71.8976 35.4749C71.8678 35.2081 71.7669 34.9542 71.6055 34.7397C71.4441 34.5251 71.2281 34.3579 70.98 34.2553C70.7319 34.1527 70.4608 34.1186 70.195 34.1565C69.8382 34.2073 69.5117 34.3848 69.275 34.6565C49.905 60.2265 52.66 56.6765 50.51 59.6765C50.4579 58.844 50.4579 58.0091 50.51 57.1765C49.6286 52.4411 49.9004 47.563 51.3025 42.9548C52.7045 38.3466 55.1956 34.1437 58.565 30.7015C68.575 20.6915 92.5 15 97.5 10.1365C95 25 87.24 29.9515 86.89 32.4515L79.185 37.4565C78.285 37.9565 76.035 38.5565 75.385 40.4565C74.28 43.7615 78.335 44.0665 80.985 46.7165C74.63 50.4165 73.83 49.2165 71.875 50.6165C71.5386 50.7995 71.2418 51.0473 71.0016 51.3455C70.7615 51.6438 70.5828 51.9867 70.4759 52.3544C70.369 52.7221 70.336 53.1074 70.3787 53.4879C70.4215 53.8684 70.5392 54.2367 70.725 54.5715C72.3117 56.1015 73.98 57.5365 75.73 58.8765C62.32 70.1365 58.565 66.2365 56.315 67.7365C56.0147 67.9411 55.7853 68.2338 55.6585 68.5743C55.5316 68.9149 55.5136 69.2863 55.6069 69.6375C55.7002 69.9887 55.9001 70.3023 56.1792 70.535C56.4583 70.7676 56.8028 70.9079 57.165 70.9365C67.175 72.5365 80.185 60.9315 80.635 59.7765C81.435 57.6765 78.985 56.0265 76.685 53.9265C80.0054 52.6333 83.2461 51.144 86.39 49.4665C86.7971 49.2659 87.1483 48.9679 87.4128 48.599C87.6772 48.2302 87.8465 47.8018 87.9059 47.3519C87.9652 46.9019 87.9127 46.4443 87.7529 46.0195C87.5932 45.5947 87.3311 45.2159 86.99 44.9165L82.89 41.2615C88.54 38.1615 91.395 36.6615 92.395 33.9065C92.995 32.4065 109.1 2.45 107.5 0Z" fill="white"></path>
</svg></svg></g></g></svg></g></svg>